<?xml version="1.0" encoding="utf-8"?>
<!-- Generator: Adobe Illustrator 16.0.0, SVG Export Plug-In . SVG Version: 6.00 Build 0)  -->
<!DOCTYPE svg PUBLIC "-//W3C//DTD SVG 1.1//EN" "http://www.w3.org/Graphics/SVG/1.1/DTD/svg11.dtd">
<svg version="1.1" id="Layer_1" xmlns="http://www.w3.org/2000/svg" xmlns:xlink="http://www.w3.org/1999/xlink" x="0px" y="0px"
	 width="512px" height="512px" viewBox="0 0 512 512" enable-background="new 0 0 512 512" xml:space="preserve">
<linearGradient id="SVGID_1_" gradientUnits="userSpaceOnUse" x1="254.5005" y1="389.6699" x2="254.5005" y2="128.0005">
	<stop  offset="0" style="stop-color:#94BCFF"/>
	<stop  offset="0.193" style="stop-color:#A3BFFB"/>
	<stop  offset="0.5662" style="stop-color:#CBC8F0"/>
	<stop  offset="0.9839" style="stop-color:#FFD4E2"/>
</linearGradient>
<path opacity="0.5" fill="url(#SVGID_1_)" d="M489.82,371.75c0,2.45-0.03,4.9-0.11,7.33c-0.1,3.55-0.27,7.08-0.52,10.59H19.81
	c-0.25-3.51-0.42-7.04-0.52-10.59c-0.08-2.43-0.11-4.88-0.11-7.33C19.18,237.13,124.54,128,254.5,128S489.82,237.13,489.82,371.75z"
	/>
<g>
	<polygon fill="#97979E" points="336,379.084 238,379.084 238,76.503 272,76.503 336,149.503 	"/>
	<g>
		<g>
			<rect x="242.75" y="92.503" fill="#1A71A6" width="6.5" height="103"/>
			<rect x="251.25" y="92.503" fill="#1A71A6" width="6.5" height="103"/>
			<rect x="259.5" y="92.503" fill="#1A71A6" width="6.5" height="103"/>
		</g>
	</g>
	<g>
		<g>
			<rect x="243" y="201.92" fill="#1A71A6" width="6.5" height="103"/>
			<rect x="251.5" y="201.92" fill="#1A71A6" width="6.5" height="103"/>
			<rect x="259.75" y="201.92" fill="#1A71A6" width="6.5" height="103"/>
		</g>
	</g>
</g>
<g>
	<path fill="#97979E" d="M137.37,103.587v275.497H71.397V241.335C71.397,165.254,100.939,103.587,137.37,103.587z"/>
	<g>
		<g>
			<g>
				<rect x="126.163" y="135.836" fill="#1A71A6" width="6.161" height="7.009"/>
				<rect x="126.163" y="146.556" fill="#1A71A6" width="6.161" height="7.009"/>
				<rect x="126.163" y="157.173" fill="#1A71A6" width="6.161" height="7.009"/>
				<rect x="126.163" y="167.892" fill="#1A71A6" width="6.161" height="7.009"/>
			</g>
			<g>
				<rect x="116.464" y="135.836" fill="#1A71A6" width="6.161" height="7.009"/>
				<rect x="116.464" y="146.556" fill="#1A71A6" width="6.161" height="7.009"/>
				<rect x="116.464" y="157.173" fill="#1A71A6" width="6.161" height="7.009"/>
				<rect x="116.464" y="167.892" fill="#1A71A6" width="6.161" height="7.009"/>
			</g>
			<g>
				<rect x="106.502" y="135.836" fill="#1A71A6" width="6.16" height="7.009"/>
				<rect x="106.502" y="146.556" fill="#1A71A6" width="6.16" height="7.009"/>
				<rect x="106.502" y="157.173" fill="#1A71A6" width="6.16" height="7.009"/>
				<rect x="106.502" y="167.892" fill="#1A71A6" width="6.16" height="7.009"/>
			</g>
		</g>
	</g>
</g>
<g>
	<rect x="154.978" y="181.254" fill="#C7C6CE" width="70.985" height="197.83"/>
	<rect x="203.272" y="173.109" fill="#1A71A6" width="22.691" height="205.975"/>
	<rect x="210.253" y="173.109" fill="#4D4D4D" width="1.164" height="205.975"/>
	<rect x="218.109" y="173.109" fill="#4D4D4D" width="1.164" height="205.975"/>
	<g>
		<rect x="203.271" y="193.571" fill="#4D4D4D" width="22.691" height="1.066"/>
		<rect x="203.272" y="234.713" fill="#4D4D4D" width="22.691" height="1.066"/>
		<rect x="203.271" y="275.854" fill="#4D4D4D" width="22.693" height="1.067"/>
		<rect x="203.271" y="316.996" fill="#4D4D4D" width="22.693" height="1.068"/>
		<rect x="203.271" y="358.137" fill="#4D4D4D" width="22.693" height="1.068"/>
	</g>
	<g>
		<rect x="160.214" y="203.365" fill="#666666" width="37.529" height="5.236"/>
		<rect x="160.215" y="229.548" fill="#666666" width="37.529" height="5.236"/>
		<rect x="160.215" y="255.732" fill="#666666" width="37.529" height="5.235"/>
		<rect x="160.216" y="281.916" fill="#666666" width="37.527" height="5.235"/>
		<rect x="160.216" y="308.099" fill="#666666" width="37.527" height="5.234"/>
		<rect x="160.216" y="334.282" fill="#666666" width="37.527" height="5.234"/>
	</g>
</g>
<g>
	<rect x="350.548" y="120.855" fill="#C7C6CE" width="73.084" height="258.229"/>
	<rect x="376.533" y="120.855" fill="#1A71A6" width="21.113" height="258.229"/>
	<rect x="387.09" y="120.855" fill="#4D4D4D" width="0.945" height="258.229"/>
	<g>
		<rect x="376.726" y="147.461" fill="#4D4D4D" width="20.889" height="0.866"/>
		<rect x="376.71" y="190.464" fill="#4D4D4D" width="20.889" height="0.866"/>
		<rect x="376.694" y="233.464" fill="#4D4D4D" width="20.889" height="0.867"/>
		<rect x="376.678" y="276.467" fill="#4D4D4D" width="20.889" height="0.866"/>
		<rect x="376.662" y="319.467" fill="#4D4D4D" width="20.889" height="0.867"/>
		<rect x="376.646" y="362.47" fill="#4D4D4D" width="20.889" height="0.867"/>
	</g>
	<g>
		<path fill="#1A71A6" d="M358.398,165.957l3.519,0v-4.196l-3.519,0V165.957z M368.819,161.76v4.196h-3.519v-4.196H368.819z"/>
		<path fill="#1A71A6" d="M358.398,202.667h3.519v-4.196h-3.519V202.667z M368.819,198.471v4.196h-3.519v-4.196H368.819z"/>
		<path fill="#1A71A6" d="M358.398,239.378h3.519v-4.195h-3.519V239.378z M368.819,235.183v4.195h-3.519v-4.195H368.819z"/>
		<path fill="#1A71A6" d="M358.399,276.089h3.519v-4.195h-3.519V276.089z M368.82,271.894v4.195h-3.519v-4.195H368.82z"/>
		<path fill="#1A71A6" d="M358.399,312.8h3.519v-4.195l-3.519,0.001V312.8z M368.82,308.604v4.194h-3.519v-4.194H368.82z"/>
		<path fill="#1A71A6" d="M358.4,349.511h3.519l-0.001-4.195l-3.519,0.001L358.4,349.511z M368.82,345.315l0.001,4.194h-3.519
			l-0.001-4.194H368.82z"/>
	</g>
	<g>
		<path fill="#1A71A6" d="M404.686,165.956h3.519v-4.196h-3.519V165.956z M415.106,161.76v4.196h-3.519v-4.196H415.106z"/>
		<path fill="#1A71A6" d="M404.686,202.667h3.519v-4.196h-3.519V202.667z M415.106,198.471v4.196h-3.519v-4.196H415.106z"/>
		<path fill="#1A71A6" d="M404.686,239.378h3.519v-4.196h-3.519V239.378z M415.106,235.182v4.196h-3.519v-4.195L415.106,235.182z"/>
		<path fill="#1A71A6" d="M404.686,276.089h3.519l0.001-4.195l-3.52,0.001V276.089z M415.107,271.895v4.194h-3.52v-4.194H415.107z"
			/>
		<path fill="#1A71A6" d="M404.686,312.8h3.519l0.001-4.195l-3.52,0.001V312.8z M415.107,308.605v4.194h-3.52v-4.193
			L415.107,308.605z"/>
		<path fill="#1A71A6" d="M404.686,349.511h3.519l0.001-4.195l-3.52,0.001V349.511z M415.107,345.316v4.194h-3.52v-4.193
			L415.107,345.316z"/>
	</g>
	<path fill="#FFFFFF" d="M384.653,171.911"/>
</g>
<g>
	<g>
		<rect x="91.788" y="298.88" fill="#EFF5F9" width="96.683" height="17.319"/>
		<rect x="91.788" y="316.199" fill="#B7C1C9" width="96.683" height="2.689"/>
	</g>
	<g>
		<rect x="91.788" y="319.057" fill="#EFF5F9" width="96.683" height="17.319"/>
		<rect x="91.788" y="336.376" fill="#B7C1C9" width="96.683" height="2.689"/>
	</g>
	<g>
		<rect x="91.788" y="339.065" fill="#EFF5F9" width="96.683" height="17.319"/>
		<rect x="91.788" y="356.385" fill="#B7C1C9" width="96.683" height="2.69"/>
	</g>
	<g>
		<rect x="91.788" y="359.075" fill="#EFF5F9" width="96.683" height="17.318"/>
		<rect x="91.788" y="376.394" fill="#B7C1C9" width="96.683" height="2.69"/>
	</g>
	<rect x="101.76" y="288.287" fill="#EFF5F9" width="29.929" height="10.593"/>
	<rect x="100.751" y="285.092" fill="#B7C1C9" width="32.115" height="3.195"/>
	<rect x="103.475" y="310.313" fill="#02619C" width="73.31" height="5.886"/>
	<rect x="103.475" y="330.49" fill="#02619C" width="73.31" height="5.886"/>
	<rect x="103.475" y="350.5" fill="#02619C" width="73.31" height="5.885"/>
	<rect x="103.475" y="370.509" fill="#02619C" width="73.31" height="5.885"/>
	<rect x="123.954" y="293.163" fill="#02619C" width="4.919" height="5.717"/>
</g>
<g>
	<polygon fill="#F0F6FB" points="352.866,269.37 352.866,379.084 315.979,379.084 315.979,298.69 279.565,298.69 279.565,269.37 	
		"/>
	<rect x="276.255" y="269.37" fill="#E1E6ED" width="76.611" height="4.257"/>
	<rect x="284.768" y="298.69" fill="#02619E" width="36.414" height="80.394"/>
	<g>
		<rect x="327.43" y="298.691" fill="#666666" width="17.748" height="2.476"/>
		<rect x="327.43" y="316.74" fill="#666666" width="17.748" height="2.476"/>
		<rect x="327.43" y="334.789" fill="#666666" width="17.748" height="2.477"/>
		<rect x="327.43" y="352.838" fill="#666666" width="17.748" height="2.477"/>
		<rect x="327.43" y="370.887" fill="#666666" width="17.748" height="2.477"/>
	</g>
	<rect x="279.565" y="337.469" fill="#E1E6ED" width="41.616" height="2.838"/>
</g>
<g>
	<g>
		<rect x="424.44" y="356.861" fill="#D6A9A6" width="2" height="23.313"/>
		<ellipse fill="#C3CD65" cx="425.44" cy="343.674" rx="10.333" ry="14.166"/>
	</g>
	<g>
		<rect x="441.425" y="369.755" fill="#D6A9A6" width="2" height="23.313"/>
		<ellipse fill="#C3CD65" cx="442.425" cy="356.567" rx="10.333" ry="14.166"/>
	</g>
	<g>
		<rect x="235.295" y="355.463" fill="#D6A9A6" width="2" height="23.313"/>
		<ellipse fill="#C3CD65" cx="236.295" cy="342.275" rx="10.333" ry="14.166"/>
	</g>
	<g>
		<rect x="48.795" y="356.694" fill="#D6A9A6" width="2" height="23.313"/>
		<ellipse fill="#C3CD65" cx="49.795" cy="343.507" rx="10.333" ry="14.166"/>
	</g>
	<g>
		<rect x="248.5" y="363.278" fill="#D6A9A6" width="2" height="18.313"/>
		<ellipse fill="#C3CD65" cx="249.501" cy="354.673" rx="10.333" ry="9.582"/>
	</g>
	<g>
		<rect x="64" y="362.403" fill="#D6A9A6" width="2" height="18.313"/>
		<ellipse fill="#C3CD65" cx="65.001" cy="353.798" rx="10.333" ry="9.582"/>
	</g>
	<g>
		<rect x="222.204" y="367.057" fill="#D6A9A6" width="2" height="18.313"/>
		<ellipse fill="#C3CD65" cx="223.204" cy="358.451" rx="10.333" ry="9.582"/>
	</g>
</g>
<g>
	<rect y="389.667" fill="#6B8193" width="512" height="64.497"/>
	<g>
		<g>
			<line fill="none" stroke="#FFFFFF" stroke-width="5" stroke-miterlimit="10" x1="0" y1="420.915" x2="22" y2="420.915"/>
			
				<line fill="none" stroke="#FFFFFF" stroke-width="5" stroke-miterlimit="10" stroke-dasharray="43.0795,13.7071" x1="35.707" y1="420.915" x2="483.146" y2="420.915"/>
			<line fill="none" stroke="#FFFFFF" stroke-width="5" stroke-miterlimit="10" x1="490" y1="420.915" x2="512" y2="420.915"/>
		</g>
	</g>
</g>
<g>
	<path fill="#71913A" d="M462.86,378.896c0,0.131-0.016,0.263-0.044,0.389h-15.863c-0.619-0.525-1.013-1.303-1.013-2.162
		c0-1.604,1.352-2.9,3.009-2.9h0.022c0.815-1.488,2.431-2.505,4.291-2.505c2.681,0,4.854,2.111,4.854,4.716
		c0,0.12-0.006,0.234-0.017,0.355c0.651,0.022,1.236,0.258,1.669,0.635c0.317-0.19,0.695-0.301,1.105-0.301
		C461.975,377.122,462.86,377.916,462.86,378.896z"/>
	<path fill="#71913A" d="M79.857,378.896c0,0.131-0.016,0.263-0.044,0.389H63.95c-0.619-0.525-1.013-1.303-1.013-2.162
		c0-1.604,1.352-2.9,3.009-2.9h0.022c0.815-1.488,2.431-2.505,4.291-2.505c2.681,0,4.854,2.111,4.854,4.716
		c0,0.12-0.006,0.234-0.017,0.355c0.651,0.022,1.236,0.258,1.669,0.635c0.317-0.19,0.695-0.301,1.105-0.301
		C78.972,377.122,79.857,377.916,79.857,378.896z"/>
	<path fill="#71913A" d="M54.667,379.788c0,0.131-0.016,0.263-0.044,0.389H38.76c-0.619-0.525-1.013-1.303-1.013-2.162
		c0-1.604,1.352-2.9,3.009-2.9h0.022c0.815-1.488,2.431-2.505,4.291-2.505c2.681,0,4.854,2.111,4.854,4.716
		c0,0.12-0.006,0.234-0.017,0.355c0.651,0.022,1.236,0.258,1.669,0.635c0.317-0.19,0.695-0.301,1.105-0.301
		C53.781,378.015,54.667,378.809,54.667,379.788z"/>
	<path fill="#71913A" d="M432.092,378.896c0,0.131-0.016,0.263-0.044,0.389h-15.863c-0.619-0.525-1.013-1.303-1.013-2.162
		c0-1.604,1.352-2.9,3.009-2.9h0.022c0.815-1.488,2.431-2.505,4.291-2.505c2.681,0,4.854,2.111,4.854,4.716
		c0,0.12-0.006,0.234-0.017,0.355c0.651,0.022,1.236,0.258,1.669,0.635c0.317-0.19,0.695-0.301,1.105-0.301
		C431.206,377.122,432.092,377.916,432.092,378.896z"/>
	<path fill="#71913A" d="M276.753,378.896c0,0.131-0.016,0.263-0.044,0.389h-15.863c-0.619-0.525-1.013-1.303-1.013-2.162
		c0-1.604,1.352-2.9,3.009-2.9h0.022c0.815-1.488,2.431-2.505,4.291-2.505c2.681,0,4.854,2.111,4.854,4.716
		c0,0.12-0.006,0.234-0.017,0.355c0.651,0.022,1.236,0.258,1.669,0.635c0.317-0.19,0.695-0.301,1.105-0.301
		C275.867,377.122,276.753,377.916,276.753,378.896z"/>
	<path fill="#71913A" d="M209.244,378.896c0,0.131-0.016,0.263-0.044,0.389h-15.863c-0.619-0.525-1.013-1.303-1.013-2.162
		c0-1.604,1.352-2.9,3.009-2.9h0.022c0.815-1.488,2.431-2.505,4.291-2.505c2.681,0,4.854,2.111,4.854,4.716
		c0,0.12-0.006,0.234-0.017,0.355c0.651,0.022,1.236,0.258,1.669,0.635c0.317-0.19,0.695-0.301,1.105-0.301
		C208.358,377.122,209.244,377.916,209.244,378.896z"/>
</g>
<rect y="379.08" fill="#7CA044" width="512" height="10.59"/>
</svg>
